<svg xmlns="http://www.w3.org/2000/svg" width="14.6" height="14.6" viewBox="0 0 21.09 21.09">
  <path id="Icon_awesome-plus" data-name="Icon awesome-plus" d="M19.584,10.535H12.8V3.756A1.507,1.507,0,0,0,11.3,2.25H9.792A1.507,1.507,0,0,0,8.285,3.756v6.779H1.506A1.507,1.507,0,0,0,0,12.042v1.506a1.507,1.507,0,0,0,1.506,1.506H8.285v6.779A1.507,1.507,0,0,0,9.792,23.34H11.3A1.507,1.507,0,0,0,12.8,21.834V15.055h6.779a1.507,1.507,0,0,0,1.506-1.506V12.042A1.507,1.507,0,0,0,19.584,10.535Z" transform="translate(0 -2.25)" fill="#fff"/>
</svg>
