<svg xmlns="http://www.w3.org/2000/svg" width="194.855" height="136.113" viewBox="0 0 194.855 136.113">
  <path id="Icon_metro-books" data-name="Icon metro-books" d="M42.271,8.571H8.243a5.688,5.688,0,0,0-5.671,5.671v124.77a5.688,5.688,0,0,0,5.671,5.671H42.271a5.688,5.688,0,0,0,5.671-5.671V14.243a5.688,5.688,0,0,0-5.671-5.671ZM36.6,42.6H13.914V31.257H36.6ZM98.985,8.571H64.957a5.688,5.688,0,0,0-5.671,5.671v124.77a5.688,5.688,0,0,0,5.671,5.671H98.985a5.688,5.688,0,0,0,5.671-5.671V14.243a5.688,5.688,0,0,0-5.671-5.671ZM93.313,42.6H70.628V31.257H93.313Zm44.855-25.259L107.78,32.652a5.688,5.688,0,0,0-2.513,7.617l51.038,101.3a5.688,5.688,0,0,0,7.617,2.513l30.389-15.311a5.688,5.688,0,0,0,2.513-7.616l-51.038-101.3a5.688,5.688,0,0,0-7.617-2.513Zm28.873,121.672a5.671,5.671,0,1,1-5.671-5.671A5.671,5.671,0,0,1,167.041,139.013Z" transform="translate(-2.571 -8.571)" fill="#2f65b0"/>
</svg>
