<svg xmlns="http://www.w3.org/2000/svg" width="15.66714286" height="13.92357143" viewBox="0 0 21.934 19.493">
  <path id="Icon_awesome-edit" data-name="Icon awesome-edit" d="M15.331,3.171l3.435,3.435a.372.372,0,0,1,0,.525l-8.317,8.317-3.534.392a.741.741,0,0,1-.819-.819l.392-3.534,8.317-8.317A.372.372,0,0,1,15.331,3.171ZM21.5,2.3,19.641.441a1.489,1.489,0,0,0-2.1,0L16.191,1.789a.372.372,0,0,0,0,.525l3.435,3.435a.372.372,0,0,0,.525,0L21.5,4.4a1.489,1.489,0,0,0,0-2.1ZM14.623,13.186v3.877H2.437V4.877h8.751a.468.468,0,0,0,.324-.133l1.523-1.523a.457.457,0,0,0-.324-.781H1.828A1.828,1.828,0,0,0,0,4.268v13.4A1.828,1.828,0,0,0,1.828,19.5h13.4a1.828,1.828,0,0,0,1.828-1.828V11.663a.458.458,0,0,0-.781-.324l-1.523,1.523A.468.468,0,0,0,14.623,13.186Z" transform="translate(0 -0.007)" fill="#fff"/>
</svg>
