<svg xmlns="http://www.w3.org/2000/svg" width="11.252" height="13.849" viewBox="0 0 11.252 13.849">
  <path id="Icon_metro-bin" data-name="Icon metro-bin" d="M5.364,6.256v8.655a.868.868,0,0,0,.866.866h7.79a.868.868,0,0,0,.866-.866V6.256Zm2.6,7.79H7.1V7.987h.866Zm1.731,0H8.826V7.987h.866Zm1.731,0h-.866V7.987h.866Zm1.731,0h-.866V7.987h.866ZM15.1,3.659H12.289V2.577a.651.651,0,0,0-.649-.649H8.61a.651.651,0,0,0-.649.649V3.659H5.148a.651.651,0,0,0-.649.649V5.39H15.751V4.308a.651.651,0,0,0-.649-.649Zm-3.679,0h-2.6V2.8h2.6v.855Z" transform="translate(-4.499 -1.928)"/>
</svg>
